<svg width="872" height="1322" viewBox="0 0 872 1322" fill="none" xmlns="http://www.w3.org/2000/svg">
<path d="M862 661C862 841.852 813.629 1005.13 735.951 1122.89C658.22 1240.74 551.964 1312 436 1312C320.036 1312 213.78 1240.74 136.049 1122.89C58.3709 1005.13 10 841.852 10 661C10 480.148 58.3709 316.873 136.049 199.109C213.78 81.2642 320.036 10 436 10C551.964 10 658.22 81.2642 735.951 199.109C813.629 316.873 862 480.148 862 661Z" fill="black" stroke="#E9C326" stroke-width="20"/>
<path d="M436 61L453.512 114.897H510.182L464.335 148.207L481.847 202.103L436 168.793L390.153 202.103L407.665 148.207L361.818 114.897H418.488L436 61Z" fill="#E9C326"/>
<path d="M636 199L653.512 252.897H710.182L664.335 286.207L681.847 340.103L636 306.793L590.153 340.103L607.665 286.207L561.818 252.897H618.488L636 199Z" fill="#E9C326"/>
<path d="M226 199L243.512 252.897H300.182L254.335 286.207L271.847 340.103L226 306.793L180.153 340.103L197.665 286.207L151.818 252.897H208.488L226 199Z" fill="#E9C326"/>
<rect x="114" y="481" width="215" height="28" fill="#1E00FF"/>
<rect x="329" y="481" width="215" height="28" fill="#E9C326"/>
<rect x="544" y="481" width="215" height="28" fill="#FF0000"/>
<path d="M322 1032C322 1009.91 339.909 992 362 992H511C533.091 992 551 1009.91 551 1032V1267C551 1291.85 530.853 1312 506 1312H367C342.147 1312 322 1291.85 322 1267V1032Z" fill="#E9C326"/>
<path d="M372.04 1255.56C363.267 1255.56 355.52 1252.76 348.8 1247.16C342.267 1241.37 339 1234.09 339 1225.32C339 1214.49 342.547 1205.72 349.64 1199C356.733 1192.28 365.32 1188.92 375.4 1188.92C378.947 1188.92 382.4 1189.67 385.76 1191.16L386.88 1185.56L412.08 1069.92L453.52 1064.32L423 1207.96C421.88 1213 420.667 1217.39 419.36 1221.12C424.027 1225.04 429.533 1227 435.88 1227C446.52 1227 455.853 1220.84 463.88 1208.52C472.093 1196.2 478.44 1180.52 482.92 1161.48C487.4 1142.44 489.64 1123.21 489.64 1103.8C489.64 1085.51 486 1072.16 478.72 1063.76C471.627 1055.17 461.64 1050.88 448.76 1050.88C434.76 1050.88 422.16 1053.68 410.96 1059.28C399.947 1064.69 391.267 1072.53 384.92 1082.8C378.573 1093.07 375.4 1105.11 375.4 1118.92C375.4 1125.83 376.053 1130.68 377.36 1133.48C378.667 1136.09 379.32 1137.59 379.32 1137.96C369.613 1137.96 362.147 1135.91 356.92 1131.8C351.88 1127.69 349.36 1121.07 349.36 1111.92C349.36 1099.23 354.12 1087.19 363.64 1075.8C373.16 1064.41 385.853 1055.27 401.72 1048.36C417.773 1041.45 435.04 1038 453.52 1038C479.093 1038 497.947 1045.56 510.08 1060.68C522.213 1075.8 528.28 1095.12 528.28 1118.64C528.28 1139.92 524.64 1160.92 517.36 1181.64C510.267 1202.17 500.747 1218.97 488.8 1232.04C476.853 1245.11 464.16 1251.64 450.72 1251.64C436.347 1251.64 423.747 1245.76 412.92 1234C407.693 1241.84 401.533 1247.35 394.44 1250.52C387.347 1253.88 379.88 1255.56 372.04 1255.56ZM365.6 1230.64C368.96 1230.64 372.133 1228.96 375.12 1225.6C378.293 1222.05 380.627 1216.45 382.12 1208.8L383.52 1201.8C380.533 1199.93 377.733 1199 375.12 1199C369.893 1199 365.133 1201.24 360.84 1205.72C356.547 1210.01 354.4 1215.24 354.4 1221.4C354.4 1224.2 355.427 1226.44 357.48 1228.12C359.72 1229.8 362.427 1230.64 365.6 1230.64Z" fill="black"/>
<path d="M184.096 444.864C178.96 444.864 174.304 443.76 170.128 441.552C166 439.296 162.736 436.2 160.336 432.264C157.984 428.28 156.808 423.792 156.808 418.8C156.808 413.808 157.984 409.344 160.336 405.408C162.736 401.424 166 398.328 170.128 396.12C174.304 393.864 178.984 392.736 184.168 392.736C188.536 392.736 192.472 393.504 195.976 395.04C199.528 396.576 202.504 398.784 204.904 401.664L197.416 408.576C194.008 404.64 189.784 402.672 184.744 402.672C181.624 402.672 178.84 403.368 176.392 404.76C173.944 406.104 172.024 408 170.632 410.448C169.288 412.896 168.616 415.68 168.616 418.8C168.616 421.92 169.288 424.704 170.632 427.152C172.024 429.6 173.944 431.52 176.392 432.912C178.84 434.256 181.624 434.928 184.744 434.928C189.784 434.928 194.008 432.936 197.416 428.952L204.904 435.864C202.504 438.792 199.528 441.024 195.976 442.56C192.424 444.096 188.464 444.864 184.096 444.864ZM258.442 393.6V444H246.85V403.104H224.098V444H212.506V393.6H258.442ZM294.984 444.864C289.752 444.864 285.024 443.736 280.8 441.48C276.624 439.224 273.336 436.128 270.936 432.192C268.584 428.208 267.408 423.744 267.408 418.8C267.408 413.856 268.584 409.416 270.936 405.48C273.336 401.496 276.624 398.376 280.8 396.12C285.024 393.864 289.752 392.736 294.984 392.736C300.216 392.736 304.92 393.864 309.096 396.12C313.272 398.376 316.56 401.496 318.96 405.48C321.36 409.416 322.56 413.856 322.56 418.8C322.56 423.744 321.36 428.208 318.96 432.192C316.56 436.128 313.272 439.224 309.096 441.48C304.92 443.736 300.216 444.864 294.984 444.864ZM294.984 434.928C297.96 434.928 300.648 434.256 303.048 432.912C305.448 431.52 307.32 429.6 308.664 427.152C310.056 424.704 310.752 421.92 310.752 418.8C310.752 415.68 310.056 412.896 308.664 410.448C307.32 408 305.448 406.104 303.048 404.76C300.648 403.368 297.96 402.672 294.984 402.672C292.008 402.672 289.32 403.368 286.92 404.76C284.52 406.104 282.624 408 281.232 410.448C279.888 412.896 279.216 415.68 279.216 418.8C279.216 421.92 279.888 424.704 281.232 427.152C282.624 429.6 284.52 431.52 286.92 432.912C289.32 434.256 292.008 434.928 294.984 434.928ZM352.497 393.096C359.553 393.096 365.049 394.824 368.985 398.28C372.969 401.736 374.961 406.584 374.961 412.824C374.961 418.728 373.161 423.36 369.561 426.72C366.009 430.08 361.017 431.76 354.585 431.76C352.473 431.76 350.409 431.544 348.393 431.112C346.425 430.68 344.289 429.96 341.985 428.952V444H330.465V414.192C330.465 407.424 332.337 402.216 336.081 398.568C339.873 394.92 345.345 393.096 352.497 393.096ZM352.569 422.976C355.977 422.976 358.593 422.112 360.417 420.384C362.289 418.656 363.225 416.208 363.225 413.04C363.225 409.824 362.289 407.328 360.417 405.552C358.593 403.776 356.049 402.888 352.785 402.888C349.377 402.888 346.713 403.872 344.793 405.84C342.921 407.808 341.985 410.568 341.985 414.12V419.736C343.425 420.744 345.057 421.536 346.881 422.112C348.753 422.688 350.649 422.976 352.569 422.976ZM421.519 407.712C417.199 405.216 412.567 403.608 407.623 402.888V444H395.959V402.888C391.015 403.608 386.359 405.216 381.991 407.712L378.031 399C381.487 396.936 385.231 395.376 389.263 394.32C393.295 393.264 397.447 392.736 401.719 392.736C406.039 392.736 410.215 393.264 414.247 394.32C418.327 395.376 422.071 396.936 425.479 399L421.519 407.712ZM477.228 393.6V444H465.924V437.88C462.468 442.536 457.38 444.864 450.66 444.864C444.708 444.864 440.052 442.992 436.692 439.248C433.38 435.456 431.724 430.08 431.724 423.12V393.6H443.388V422.76C443.388 426.792 444.324 429.84 446.196 431.904C448.116 433.92 450.708 434.928 453.972 434.928C457.476 434.928 460.284 433.848 462.396 431.688C464.508 429.48 465.564 426.24 465.564 421.968V393.6H477.228ZM524.387 417.72C527.459 418.632 529.811 420.12 531.443 422.184C533.075 424.248 533.891 426.792 533.891 429.816C533.891 434.28 532.187 437.76 528.779 440.256C525.419 442.752 520.595 444 514.307 444H489.467V393.6H512.939C518.795 393.6 523.355 394.728 526.619 396.984C529.883 399.24 531.515 402.456 531.515 406.632C531.515 409.128 530.891 411.336 529.643 413.256C528.395 415.128 526.643 416.616 524.387 417.72ZM501.059 414.48H511.931C514.475 414.48 516.395 413.976 517.691 412.968C518.987 411.912 519.635 410.376 519.635 408.36C519.635 406.392 518.963 404.88 517.619 403.824C516.323 402.768 514.427 402.24 511.931 402.24H501.059V414.48ZM513.875 435.36C519.347 435.36 522.083 433.2 522.083 428.88C522.083 424.704 519.347 422.616 513.875 422.616H501.059V435.36H513.875ZM589.34 393.6V444H577.676V423.336H554.78V444H543.116V393.6H554.78V413.472H577.676V393.6H589.34ZM625.943 408.792C631.991 408.792 636.767 410.352 640.271 413.472C643.823 416.592 645.599 420.96 645.599 426.576C645.599 432.432 643.631 436.968 639.695 440.184C635.759 443.4 630.167 445.008 622.919 445.008C615.767 445.008 610.343 443.4 606.647 440.184C602.951 436.968 601.103 432.24 601.103 426V393.6H612.623V411.744C617.183 409.776 621.623 408.792 625.943 408.792ZM663.455 393.6V444H651.935V393.6H663.455ZM623.423 435.936C626.735 435.936 629.303 435.144 631.127 433.56C632.951 431.976 633.863 429.768 633.863 426.936C633.863 424.008 632.879 421.752 630.911 420.168C628.991 418.536 626.423 417.72 623.207 417.72C621.431 417.72 619.607 418.008 617.735 418.584C615.863 419.112 614.159 419.88 612.623 420.888V425.712C612.623 428.976 613.559 431.496 615.431 433.272C617.303 435.048 619.967 435.936 623.423 435.936ZM720.79 393.6V444H709.486V437.88C706.03 442.536 700.942 444.864 694.222 444.864C688.27 444.864 683.614 442.992 680.254 439.248C676.942 435.456 675.286 430.08 675.286 423.12V393.6H686.95V422.76C686.95 426.792 687.886 429.84 689.758 431.904C691.678 433.92 694.27 434.928 697.534 434.928C701.038 434.928 703.846 433.848 705.958 431.688C708.07 429.48 709.126 426.24 709.126 421.968V393.6H720.79ZM698.398 390.36C689.182 390.36 684.526 386.688 684.43 379.344H692.422C692.518 382.848 694.51 384.6 698.398 384.6C700.318 384.6 701.782 384.168 702.79 383.304C703.798 382.392 704.326 381.072 704.374 379.344H712.366C712.318 382.944 711.142 385.68 708.838 387.552C706.534 389.424 703.054 390.36 698.398 390.36Z" fill="#E9C326"/>
<path d="M324.368 848.928H313.616V876H298.16V808.8H313.616V835.968H324.752L342.416 808.8H358.832L336.848 841.248L359.504 876H341.84L324.368 848.928ZM400.818 807.648C406.77 807.648 411.986 808.832 416.466 811.2C421.01 813.568 424.53 817.056 427.026 821.664C429.522 826.208 430.77 831.712 430.77 838.176V876H415.122V836.832C415.122 831.584 413.842 827.616 411.282 824.928C408.722 822.24 405.234 820.896 400.818 820.896C396.338 820.896 392.786 822.24 390.162 824.928C387.602 827.616 386.322 831.584 386.322 836.832V876H362.994L362.898 863.328H370.674V838.176C370.674 831.712 371.922 826.208 374.418 821.664C376.914 817.056 380.434 813.568 384.978 811.2C389.522 808.832 394.802 807.648 400.818 807.648ZM503.656 808.8V854.976C503.656 865.088 500.84 872.832 495.208 878.208C489.576 883.648 481.8 886.368 471.88 886.368C466.184 886.368 460.968 885.568 456.232 883.968C451.496 882.432 447.464 880.224 444.136 877.344L450.184 865.824C456.264 870.752 463.368 873.216 471.496 873.216C477.128 873.216 481.288 871.808 483.976 868.992C486.728 866.112 488.104 861.696 488.104 855.744V851.616C483.624 857.12 477.288 859.872 469.096 859.872C460.584 859.872 454.024 857.472 449.416 852.672C444.872 847.808 442.6 840.832 442.6 831.744V808.8H458.152V830.784C458.152 836.032 459.4 840 461.896 842.688C464.392 845.376 467.912 846.72 472.456 846.72C477.256 846.72 481.064 845.312 483.88 842.496C486.696 839.68 488.104 835.424 488.104 829.728V808.8H503.656ZM519.415 808.8H573.655V821.184H534.871V835.008H553.495C561.623 835.008 567.799 836.704 572.023 840.096C576.311 843.488 578.455 848.384 578.455 854.784C578.455 861.504 576.087 866.72 571.351 870.432C566.615 874.144 559.927 876 551.287 876H519.415V808.8ZM550.423 864.48C554.391 864.48 557.431 863.712 559.542 862.176C561.655 860.576 562.711 858.272 562.711 855.264C562.711 849.376 558.615 846.432 550.423 846.432H534.871V864.48H550.423Z" fill="#E9C326"/>
<path d="M771 813.896C504.2 685.496 213.833 760.396 102 813.896V841.896C393.2 693.496 669.333 780.063 771 841.896V813.896Z" fill="#E9C326"/>
<path d="M178.125 682.129L190.388 715.987L172.053 722.627L165.634 704.904L103.052 727.569L109.471 745.293L91.1363 751.933L78.9963 718.031L89.2636 714.312L77.6654 682.288C74.6846 674.058 73.7763 666.46 74.9404 659.493C76.0751 652.446 79.0299 646.352 83.805 641.212C88.6616 636.043 95.0013 632.042 102.824 629.208C110.647 626.375 118.038 625.404 124.997 626.294C132.037 627.155 138.25 629.928 143.634 634.615C148.989 639.22 153.157 645.637 156.137 653.868L167.736 685.892L178.125 682.129ZM147.812 693.108L135.594 659.372C133.174 652.69 129.633 648.258 124.971 646.075C120.391 643.862 115.045 643.863 108.933 646.076C102.903 648.26 98.7558 651.698 96.4914 656.389C94.3084 661.051 94.427 666.723 96.847 673.405L109.065 707.141L147.812 693.108Z" fill="#E9C326"/>
<path d="M240.398 687.664C231.161 689.646 222.387 689.445 214.076 687.062C205.849 684.661 198.872 680.44 193.145 674.401C187.484 668.258 183.717 660.823 181.845 652.095C179.972 643.366 180.367 635.083 183.028 627.243C185.757 619.301 190.38 612.548 196.897 606.984C203.5 601.401 211.42 597.619 220.656 595.638C229.893 593.657 238.624 593.866 246.851 596.268C255.078 598.669 262.064 602.932 267.81 609.056C273.537 615.096 277.337 622.48 279.209 631.208C281.082 639.936 280.654 648.271 277.926 656.213C275.179 664.071 270.547 670.782 264.029 676.346C257.512 681.91 249.634 685.683 240.398 687.664ZM236.635 670.123C241.889 668.996 246.38 666.792 250.108 663.51C253.817 660.144 256.395 656.046 257.841 651.215C259.371 646.366 259.545 641.188 258.364 635.68C257.182 630.172 254.899 625.52 251.515 621.726C248.215 617.913 244.192 615.275 239.446 613.811C234.682 612.263 229.673 612.052 224.419 613.179C219.165 614.306 214.684 616.553 210.974 619.919C207.246 623.201 204.617 627.266 203.086 632.115C201.641 636.945 201.509 642.115 202.69 647.623C203.872 653.131 206.113 657.791 209.412 661.604C212.797 665.398 216.871 668.07 221.635 669.618C226.381 671.082 231.381 671.25 236.635 670.123Z" fill="#E9C326"/>
<path d="M378.851 575.367L387.216 665.982L366.245 667.917L362.815 630.765L321.65 634.565L325.08 671.717L304.109 673.653L295.744 583.039L316.715 581.103L320.013 616.831L361.178 613.031L357.88 577.303L378.851 575.367Z" fill="#E9C326"/>
<path d="M453.244 667.834C443.974 667.61 435.618 665.415 428.176 661.247C420.823 656.995 415.067 651.265 410.906 644.056C406.834 636.762 404.907 628.61 405.124 619.599C405.342 610.588 407.659 602.582 412.076 595.58C416.582 588.493 422.608 583.047 430.156 579.241C437.792 575.351 446.288 573.519 455.646 573.745C463.53 573.935 470.601 575.493 476.859 578.418C483.204 581.345 488.479 585.46 492.686 590.764L478.869 602.914C472.889 595.661 465.35 591.924 456.252 591.705C450.621 591.569 445.565 592.704 441.086 595.11C436.609 597.429 433.06 600.768 430.441 605.126C427.908 609.486 426.574 614.482 426.438 620.113C426.302 625.745 427.394 630.8 429.713 635.277C432.119 639.756 435.501 643.306 439.859 645.925C444.219 648.457 449.215 649.792 454.847 649.928C463.944 650.147 471.656 646.736 477.981 639.693L491.196 652.496C486.736 657.676 481.267 661.575 474.789 664.193C468.31 666.811 461.129 668.024 453.244 667.834Z" fill="#E9C326"/>
<path d="M545.563 637.331L531.153 635.251L525.917 671.536L505.202 668.547L518.197 578.479L538.913 581.468L533.659 617.881L548.584 620.035L577.513 587.038L599.515 590.212L563.775 629.451L587.421 680.409L563.746 676.994L545.563 637.331Z" fill="#E9C326"/>
<path d="M643.974 697.315C634.906 694.668 627.282 690.321 621.103 684.273C615.006 678.25 610.874 671.22 608.706 663.184C606.645 655.089 606.866 646.757 609.368 638.188C611.869 629.619 616.154 622.518 622.222 616.887C628.398 611.196 635.675 607.452 644.055 605.655C652.517 603.882 661.282 604.319 670.351 606.967C679.419 609.614 687.001 613.949 693.097 619.973C699.194 625.996 703.314 633.067 705.458 641.186C707.626 649.223 707.459 657.525 704.957 666.094C702.456 674.663 698.117 681.793 691.942 687.484C685.79 693.091 678.525 696.794 670.146 698.591C661.766 700.388 653.042 699.963 643.974 697.315ZM649.002 680.094C654.16 681.6 659.159 681.795 663.998 680.68C668.862 679.482 673.079 677.102 676.647 673.539C680.298 670 682.913 665.527 684.492 660.12C686.07 654.712 686.273 649.535 685.099 644.587C684.008 639.664 681.723 635.431 678.243 631.887C674.788 628.26 670.481 625.694 665.323 624.188C660.165 622.682 655.154 622.528 650.29 623.727C645.45 624.842 641.205 627.168 637.553 630.707C633.985 634.27 631.412 638.755 629.833 644.163C628.255 649.57 628.011 654.735 629.101 659.658C630.275 664.606 632.59 668.893 636.045 672.52C639.525 676.064 643.844 678.588 649.002 680.094Z" fill="#E9C326"/>
<path d="M817.188 666.817L778.844 749.345L760.335 740.745L764.991 730.724C755.789 735.718 745.687 735.66 734.683 730.547C724.937 726.019 718.737 719.411 716.084 710.725C713.546 701.996 714.924 691.933 720.219 680.536L742.677 632.199L761.776 641.072L739.592 688.82C736.525 695.423 735.738 701.126 737.233 705.93C738.844 710.691 742.321 714.314 747.666 716.797C753.403 719.463 758.823 719.831 763.924 717.901C769.063 715.892 773.257 711.39 776.507 704.395L798.088 657.943L817.188 666.817ZM782.987 644.476C767.896 637.465 763.066 627.91 768.496 615.812L781.582 621.892C779.074 627.703 781.003 632.087 787.369 635.045C790.513 636.505 793.239 636.912 795.547 636.264C797.891 635.538 799.76 633.778 801.153 630.985L814.239 637.065C811.422 642.923 807.415 646.509 802.218 647.821C797.021 649.134 790.611 648.019 782.987 644.476Z" fill="#E9C326"/>
</svg>
