<svg width="30" height="30" viewBox="0 0 51 50" fill="none" xmlns="http://www.w3.org/2000/svg">
<path d="M25 0C19.4327 0.00606476 14.0951 2.19849 10.1583 6.0963C6.22139 9.99411 4.00668 15.279 4 20.7916C4 26.1458 8.18695 34.5249 16.4451 45.6958C17.4283 47.0294 18.7155 48.1143 20.202 48.8622C21.6886 49.6102 23.3325 50 25 50C26.6675 50 28.3114 49.6102 29.798 48.8622C31.2845 48.1143 32.5717 47.0294 33.5549 45.6958C41.813 34.5249 46 26.1458 46 20.7916C45.9933 15.279 43.7786 9.99411 39.8417 6.0963C35.9049 2.19849 30.5673 0.00606476 25 0ZM25 29.0791C23.3355 29.0791 21.7083 28.5904 20.3243 27.6747C18.9403 26.759 17.8616 25.4575 17.2246 23.9348C16.5877 22.4121 16.421 20.7366 16.7457 19.1201C17.0705 17.5035 17.872 16.0187 19.049 14.8533C20.226 13.6878 21.7256 12.8941 23.3581 12.5726C24.9907 12.2511 26.6828 12.4161 28.2207 13.0468C29.7585 13.6775 31.0729 14.7456 31.9976 16.1161C32.9224 17.4865 33.416 19.0976 33.416 20.7458C33.416 22.9559 32.5293 25.0755 30.951 26.6383C29.3727 28.2011 27.2321 29.0791 25 29.0791Z" fill="#7AB1FF"/>
</svg>
